<mxfile host="app.diagrams.net" agent="Mozilla/5.0 (Windows NT 10.0; Win64; x64) AppleWebKit/537.36 (KHTML, like Gecko) Chrome/133.0.0.0 Safari/537.36" version="26.0.16">
  <diagram name="Page-1" id="mrFfyD1bEYgQZBTlpDTA">
    <mxGraphModel dx="292" dy="557" grid="1" gridSize="10" guides="1" tooltips="1" connect="1" arrows="1" fold="1" page="1" pageScale="1" pageWidth="827" pageHeight="1169" math="0" shadow="0">
      <root>
        <mxCell id="0" />
        <mxCell id="1" parent="0" />
        <mxCell id="iiFITzA4aOUZ_DSr-EUn-16" style="rounded=0;orthogonalLoop=1;jettySize=auto;html=1;entryX=0;entryY=0.5;entryDx=0;entryDy=0;" edge="1" parent="1" source="iiFITzA4aOUZ_DSr-EUn-1" target="iiFITzA4aOUZ_DSr-EUn-5">
          <mxGeometry relative="1" as="geometry" />
        </mxCell>
        <mxCell id="iiFITzA4aOUZ_DSr-EUn-1" value="Person" style="shape=umlActor;verticalLabelPosition=bottom;verticalAlign=top;html=1;outlineConnect=0;" vertex="1" parent="1">
          <mxGeometry x="40" y="160" width="30" height="60" as="geometry" />
        </mxCell>
        <mxCell id="iiFITzA4aOUZ_DSr-EUn-2" value="gérer les dépenses" style="ellipse;whiteSpace=wrap;html=1;" vertex="1" parent="1">
          <mxGeometry x="190" y="30" width="130" height="80" as="geometry" />
        </mxCell>
        <mxCell id="iiFITzA4aOUZ_DSr-EUn-4" value="&lt;p data-end=&quot;1184&quot; data-start=&quot;1160&quot;&gt;&lt;span data-end=&quot;1184&quot; data-start=&quot;1160&quot;&gt;gérer les revenu&lt;/span&gt;&lt;/p&gt;" style="ellipse;whiteSpace=wrap;html=1;" vertex="1" parent="1">
          <mxGeometry x="190" y="150" width="130" height="80" as="geometry" />
        </mxCell>
        <mxCell id="iiFITzA4aOUZ_DSr-EUn-5" value="Calculer le solde" style="ellipse;whiteSpace=wrap;html=1;" vertex="1" parent="1">
          <mxGeometry x="440" y="180" width="120" height="80" as="geometry" />
        </mxCell>
        <mxCell id="iiFITzA4aOUZ_DSr-EUn-8" value="Générer un rapport financier" style="ellipse;whiteSpace=wrap;html=1;" vertex="1" parent="1">
          <mxGeometry x="190" y="280" width="120" height="80" as="geometry" />
        </mxCell>
        <mxCell id="iiFITzA4aOUZ_DSr-EUn-9" value="Exporter le rapport" style="ellipse;whiteSpace=wrap;html=1;" vertex="1" parent="1">
          <mxGeometry x="440" y="280" width="120" height="80" as="geometry" />
        </mxCell>
        <mxCell id="iiFITzA4aOUZ_DSr-EUn-11" style="edgeStyle=orthogonalEdgeStyle;rounded=0;orthogonalLoop=1;jettySize=auto;html=1;dashed=1;dashPattern=8 8;strokeColor=default;exitX=0;exitY=0.5;exitDx=0;exitDy=0;" edge="1" parent="1" source="iiFITzA4aOUZ_DSr-EUn-9">
          <mxGeometry relative="1" as="geometry">
            <mxPoint x="370" y="320" as="sourcePoint" />
            <mxPoint x="310" y="320" as="targetPoint" />
            <Array as="points" />
          </mxGeometry>
        </mxCell>
        <mxCell id="iiFITzA4aOUZ_DSr-EUn-12" value="Extends" style="edgeLabel;html=1;align=center;verticalAlign=middle;resizable=0;points=[];" vertex="1" connectable="0" parent="iiFITzA4aOUZ_DSr-EUn-11">
          <mxGeometry x="-0.0233" y="1" relative="1" as="geometry">
            <mxPoint as="offset" />
          </mxGeometry>
        </mxCell>
      </root>
    </mxGraphModel>
  </diagram>
</mxfile>
